<svg xmlns="http://www.w3.org/2000/svg" viewBox="0 0 640 480"><path style="fill-rule:evenodd;clip-rule:evenodd;fill:#bd3d44" d="M0 0h640v36.9H0V0zm0 73.9h640v36.9H0V73.9zm0 73.8h640v37H0v-37zm0 73.8h640v36.9H0v-36.9zm0 73.9h640v36.9H0v-36.9zm0 73.8h640v36.9H0v-36.9zm0 73.9h640V480H0v-36.9z"/><path style="fill-rule:evenodd;clip-rule:evenodd;fill:#fff" d="M0 36.9h640v36.9H0V36.9zm0 73.9h640v36.8H0v-36.8zm0 73.8h640v36.9H0v-36.9zm0 73.9h640v36.9H0v-36.9zm0 73.8h640v36.9H0v-36.9zm0 73.8h640V443H0v-36.9z"/><path style="fill-rule:evenodd;clip-rule:evenodd;fill:#192f5d" d="M0 0h364.8v258.5H0V0z"/><path style="fill-rule:evenodd;clip-rule:evenodd;fill:#fff" d="m30.4 11.1 3.4 10.2h10.7l-8.6 6.3 3.3 10.3-8.7-6.4-8.6 6.3L25 27.6l-8.7-6.3h10.9l3.2-10.2zm60.8 0 3.3 10.2h10.8l-8.7 6.3 3.3 10.3-8.6-6.4-8.7 6.3 3.3-10.2-8.6-6.3H88l3.2-10.2zm60.8 0 3.4 10.2H166l-8.6 6.3 3.3 10.3-8.7-6.4-8.6 6.3 3.3-10.2-8.7-6.3h10.8l3.2-10.2zm60.8 0 3.3 10.2h10.8l-8.7 6.3 3.4 10.3-8.7-6.4-8.7 6.3 3.4-10.2-8.7-6.3h10.7l3.2-10.2zm60.8 0 3.4 10.2h10.7l-8.6 6.3 3.3 10.3-8.7-6.4-8.6 6.3 3.3-10.2-8.6-6.3h10.7l3.1-10.2zm60.8 0 3.3 10.2h10.8l-8.7 6.3 3.4 10.3-8.7-6.4-8.7 6.3 3.4-10.2-8.7-6.3h10.8l3.1-10.2zM60.8 36.9l3.3 10.2h10.8l-8.7 6.3 3.2 10.2-8.4-6.3-8.7 6.3 3.1-10.2-8.4-6.3h10.7l3.1-10.2zm60.8 0 3.4 10.2h10.7l-8.7 6.3 3.4 10.2-8.7-6.3-8.7 6.3 3.4-10.2-8.7-6.3h10.8l3.1-10.2zm60.8 0 3.3 10.2h10.8l-8.7 6.3 3.3 10.2-8.6-6.3-8.7 6.3 3.3-10.2-8.6-6.3h10.7l3.2-10.2zm60.8 0 3.4 10.2h10.7l-8.7 6.3 3.4 10.2-8.7-6.3-8.6 6.3 3.3-10.2-8.7-6.3H240l3.2-10.2zm60.8 0 3.3 10.2h10.8l-8.7 6.3 3.3 10.2-8.6-6.3-8.7 6.3 3.3-10.2-8.6-6.3h10.7l3.2-10.2zM30.4 62.7l3.4 10.4h10.7l-8.6 6.3 3.3 10.2-8.7-6.4-8.6 6.4L25 79.3 16.3 73h10.9l3.2-10.3zm60.8 0L94.5 73h10.8l-8.7 6.3 3.3 10.2-8.6-6.4-8.7 6.4 3.3-10.3-8.6-6.3H88l3.2-10.2zm60.8 0 3.4 10.3H166l-8.6 6.3 3.3 10.2-8.7-6.4-8.6 6.4 3.3-10.3-8.7-6.3h10.8l3.2-10.2zm60.8 0 3.3 10.3h10.8l-8.7 6.3 3.4 10.2-8.7-6.4-8.7 6.4 3.4-10.3-8.7-6.3h10.7l3.2-10.2zm60.8 0L277 73h10.7l-8.6 6.3 3.3 10.2-8.7-6.4-8.6 6.4 3.3-10.3-8.6-6.3h10.7l3.1-10.2zm60.8 0 3.3 10.3h10.8l-8.7 6.3 3.4 10.2-8.7-6.4-8.7 6.4 3.4-10.3-8.7-6.3h10.8l3.1-10.2zM60.8 88.6l3.3 10.2h10.8l-8.7 6.3 3.3 10.3-8.6-6.4-8.7 6.3 3.3-10.2-8.6-6.3h10.7l3.2-10.2zm60.8 0 3.4 10.2h10.7l-8.7 6.3 3.4 10.3-8.7-6.4-8.7 6.3 3.4-10.2-8.7-6.3h10.8l3.1-10.2zm60.8 0 3.3 10.2h10.8l-8.7 6.3 3.3 10.3-8.6-6.4-8.7 6.3 3.3-10.2-8.6-6.3h10.7l3.2-10.2zm60.8 0 3.4 10.2h10.7l-8.6 6.3 3.3 10.3-8.7-6.4-8.6 6.3 3.3-10.2-8.7-6.3H240l3.2-10.2zm60.8 0 3.3 10.2h10.8l-8.7 6.3 3.3 10.3-8.7-6.4-8.7 6.3 3.3-10.2-8.6-6.3h10.7l3.3-10.2zM30.4 114.5l3.4 10.2h10.7l-8.6 6.3 3.3 10.3-8.7-6.4-8.6 6.3L25 131l-8.7-6.3h10.9l3.2-10.2zm60.8 0 3.3 10.2h10.8l-8.7 6.3 3.3 10.2-8.6-6.3-8.7 6.3 3.3-10.2-8.6-6.3H88l3.2-10.2zm60.8 0 3.4 10.2H166l-8.6 6.3 3.3 10.3-8.7-6.4-8.6 6.3 3.3-10.2-8.7-6.3h10.8l3.2-10.2zm60.8 0 3.3 10.2h10.8l-8.7 6.3 3.4 10.3-8.7-6.4-8.7 6.3 3.4-10.2-8.7-6.3h10.7l3.2-10.2zm60.8 0 3.4 10.2h10.7L279 131l3.3 10.3-8.7-6.4-8.6 6.3 3.3-10.2-8.6-6.3h10.7l3.2-10.2zm60.8 0 3.3 10.2h10.8l-8.7 6.3 3.4 10.3-8.7-6.4-8.7 6.3 3.4-10.2-8.7-6.3h10.8l3.1-10.2zM60.8 140.3l3.3 10.2h10.8l-8.7 6.3 3.3 10.2-8.6-6.4-8.7 6.4 3.3-10.3-8.6-6.3h10.7l3.2-10.1zm60.8 0 3.4 10.2h10.7l-8.7 6.3 3.4 10.2-8.7-6.4-8.7 6.4 3.4-10.3-8.7-6.3h10.8l3.1-10.1zm60.8 0 3.3 10.2h10.8l-8.7 6.3 3.3 10.2-8.6-6.4-8.7 6.4 3.3-10.3-8.6-6.3h10.7l3.2-10.1zm60.8 0 3.4 10.2h10.7l-8.6 6.3L252 167l-8.7-6.4-8.6 6.4 3.3-10.3-8.7-6.3H240l3.2-10.1zm60.8 0 3.3 10.2h10.8l-8.7 6.3 3.3 10.2-8.6-6.4-8.7 6.4 3.3-10.3-8.6-6.3h10.7l3.2-10.1zM30.4 166.1l3.4 10.3h10.7l-8.6 6.3 3.3 10.1-8.7-6.3-8.6 6.3 3.3-10.2-8.7-6.3h10.9l3-10.2zm60.8 0 3.3 10.3h10.8l-8.7 6.3 3.4 10.1-8.7-6.3-8.7 6.3 3.4-10.2-8.7-6.3H88l3.2-10.2zm60.8 0 3.4 10.3H166l-8.6 6.3 3.3 10.1-8.7-6.3-8.6 6.3 3.3-10.2-8.7-6.3h10.8l3.2-10.2zm60.8 0 3.3 10.3h10.8l-8.7 6.3 3.4 10.1-8.7-6.3-8.7 6.3 3.4-10.2-8.7-6.3h10.7l3.2-10.2zm60.8 0 3.4 10.3h10.7l-8.6 6.3 3.3 10.1-8.7-6.3-8.6 6.3 3.3-10.2-8.6-6.3h10.7l3.1-10.2zm60.8 0 3.3 10.3h10.8l-8.7 6.3 3.4 10.1-8.7-6.3-8.7 6.3 3.4-10.2-8.7-6.3h10.8l3.1-10.2zM60.8 192l3.3 10.2h10.8l-8.7 6.3 3.3 10.3-8.6-6.4-8.7 6.3 3.3-10.2-8.6-6.3h10.7l3.2-10.2zm60.8 0 3.4 10.2h10.7l-8.7 6.3 3.4 10.3-8.7-6.4-8.7 6.3 3.4-10.2-8.7-6.3h10.8l3.1-10.2zm60.8 0 3.3 10.2h10.8l-8.7 6.3 3.3 10.3-8.6-6.4-8.7 6.3 3.3-10.2-8.6-6.3h10.7l3.2-10.2zm60.8 0 3.4 10.2h10.7l-8.6 6.3 3.3 10.3-8.7-6.4-8.6 6.3 3.3-10.2-8.7-6.3H240l3.2-10.2zm60.8 0 3.3 10.2h10.8l-8.7 6.3 3.3 10.3-8.6-6.4-8.7 6.3 3.3-10.2-8.6-6.3h10.7L304 192zM30.4 217.9l3.4 10.2h10.7l-8.6 6.3 3.3 10.2-8.7-6.3-8.6 6.3 3.3-10.3-8.7-6.3h10.9l3-10.1zm60.8 0 3.3 10.2h10.8l-8.7 6.3 3.4 10.2-8.7-6.3-8.7 6.3 3.4-10.3-8.7-6.3H88l3.2-10.1zm60.8 0 3.4 10.2H166l-8.4 6.3 3.3 10.2-8.7-6.3-8.6 6.3 3.3-10.3-8.9-6.3h10.8l3.2-10.1zm60.8 0 3.3 10.2h10.8l-8.7 6.3 3.4 10.2-8.7-6.3-8.7 6.3 3.4-10.3-8.7-6.3h10.7l3.2-10.1zm60.8 0 3.4 10.2h10.7l-8.6 6.3 3.3 10.2-8.7-6.3-8.6 6.3 3.3-10.3-8.6-6.3h10.7l3.1-10.1zm60.8 0 3.3 10.2h10.8l-8.7 6.3 3.4 10.2-8.7-6.3-8.7 6.3 3.4-10.3-8.7-6.3h10.8l3.1-10.1z"/></svg>